<svg width="150" height="40" viewBox="0 0 150 40" xmlns="http://www.w3.org/2000/svg"><title>02F0366E-58CD-4C68-94D5-39D112C141FD</title><g fill-rule="nonzero" fill="none"><g fill="#221F1F"><path d="M54.472 17.669c-2.096-.577-2.52-.911-2.52-1.518 0-.576.486-.971 1.58-.971 1.426 0 3.277.516 4.886 1.396l.579-3.493c-1.551-.697-3.493-1.092-5.497-1.092-3.643 0-5.707 1.853-5.707 4.617 0 2.79 1.58 3.793 5.314 4.764 2.094.516 2.519.85 2.519 1.609 0 .697-.609 1.123-1.883 1.123-1.7 0-3.856-.667-5.616-1.76l-.545 3.491c1.547.82 3.763 1.488 6.13 1.488 3.949 0 6.103-1.7 6.103-4.826-.001-2.764-1.398-3.765-5.343-4.828zM71.289 11.899c-1.822 0-3.188.943-4.433 2.157V5.162l-4.583.728v21.19h4.583v-9.775c.82-.82 1.64-1.335 2.521-1.335 1.091 0 1.517.728 1.517 1.79v9.32h4.614V16.515c0-2.886-1.457-4.616-4.219-4.616zM80.972 5.314c-1.459 0-2.61.97-2.61 2.488 0 1.488 1.151 2.459 2.61 2.459 1.488 0 2.611-.97 2.611-2.459 0-1.518-1.123-2.488-2.61-2.488zM78.666 12.204h4.614V27.08h-4.614zM95.149 11.899c-1.912 0-3.248 1.125-4.282 2.278l-.303-1.974h-4.038v20.52l4.584-.697v-5.31c.852.272 1.793.515 3.128.515 3.279 0 6.254-2.336 6.254-7.984 0-5.04-2.278-7.348-5.343-7.348zm-1.944 11.72c-.94 0-1.457-.15-2.094-.456v-5.646c.759-.91 1.548-1.519 2.551-1.519 1.306 0 2.246 1.064 2.246 3.553 0 2.884-1.153 4.069-2.702 4.069zM111.662 11.899c-1.912 0-3.248 1.125-4.28 2.278l-.304-1.974h-4.037v20.52l4.583-.697v-5.31c.85.272 1.791.515 3.127.515 3.28 0 6.254-2.336 6.254-7.984 0-5.04-2.275-7.348-5.343-7.348zm-1.943 11.72c-.941 0-1.456-.15-2.095-.456v-5.646c.759-.91 1.549-1.519 2.55-1.519 1.306 0 2.247 1.064 2.247 3.553 0 2.884-1.155 4.069-2.702 4.069zM121.954 5.314c-1.459 0-2.61.97-2.61 2.488 0 1.488 1.151 2.459 2.61 2.459 1.487 0 2.612-.97 2.612-2.459 0-1.518-1.125-2.488-2.612-2.488zM119.646 12.204h4.615V27.08h-4.615zM145.567 12.204l-2.733 9.168-2.884-9.168h-6.976v-1.396c0-1.215.578-1.821 1.82-1.821.639 0 1.185.061 1.638.121l-.545-3.522c-.517-.062-1.122-.153-1.852-.153-3.43 0-5.647 1.337-5.647 4.92v1.85h-2.063v3.735h2.063V27.08h4.586V15.94h3.415l4.047 11.171-.181.455c-.485 1.033-1.397 1.427-2.43 1.427-.878 0-1.334-.093-1.82-.243l.578 3.673c.422.091.819.182 1.73.182 3.249 0 5.069-1.337 6.406-5.223L150 12.203h-4.433z"/></g><path d="M35.059 7.918c-2.529-1.673-5.652-1.749-8.19-.485l-2.09-3.357L.88.88l3.74 4.759 3.488.486 2.971 4.299 4.747.541 3.125 4.148 3.423.468a8.202 8.202 0 0 0 3.641 6.039c3.776 2.492 8.877 1.447 11.374-2.33 2.495-3.78 1.448-8.879-2.33-11.372z" fill="#FCF173"/><path d="M36.404 4.054c-3.919-2.193-8.516-2.058-12.196-.055l.57.076 2.091 3.358c2.538-1.264 5.661-1.188 8.19.485 3.779 2.494 4.825 7.593 2.33 11.372-2.496 3.777-7.598 4.823-11.374 2.33a8.202 8.202 0 0 1-3.64-6.04l-3.423-.467-.989-1.313c-1.06 8.674.69 23.318.753 24.009l.109 1.134 1.026-.502c.768-.379 18.133-11.388 21.403-17.232 3.39-6.066 1.218-13.762-4.85-17.155z" fill="#EF404A"/><path d="M36.834 3.286a13.48 13.48 0 0 0-6.563-1.714c-2.203 0-4.329.54-6.22 1.518L.998.009a.876.876 0 0 0-.88.435.878.878 0 0 0 .071.98l3.74 4.759a.883.883 0 0 0 .571.328l3.107.433 2.75 3.981a.881.881 0 0 0 .623.374l4.373.498 1.705 2.263c-.503 4.351-.553 11.554.747 23.487.018.178.032.295.036.346l.11 1.134a.878.878 0 0 0 1.262.706l1.03-.504c.85-.42 18.338-11.439 21.779-17.59 3.627-6.49 1.301-14.723-5.187-18.352zm-20.909 6.805l-4.349-.495L9.97 7.271l4.333.604a.88.88 0 0 0 .243-1.742L5.093 4.816 2.909 2.04 24.25 4.892l3.493 5.61a.877.877 0 0 0 1.092.344 4.254 4.254 0 0 1 5.264 1.615c.617.96.824 2.102.581 3.213a4.295 4.295 0 0 1-4.171 3.361 4.253 4.253 0 0 1-4.137-3.24.876.876 0 0 0-.733-.657l-6.206-.848-1.672-2.22 3.403.389a.882.882 0 0 0 .98-.877.88.88 0 0 0-.78-.872l-5.438-.619h-.002zm19.655 1.42a5.98 5.98 0 0 0-3.785-2.633 6.006 6.006 0 0 0-2.932.095l-.701-1.128a7.356 7.356 0 0 1 2.387-.405 7.28 7.28 0 0 1 4.027 1.212 7.278 7.278 0 0 1 3.139 4.647 7.277 7.277 0 0 1-1.059 5.506 7.328 7.328 0 0 1-6.133 3.29 7.294 7.294 0 0 1-7.063-5.479l1.384.189a5.99 5.99 0 0 0 4.382 3.852c.424.091.855.139 1.285.139 2.812 0 5.29-1.997 5.89-4.746a5.99 5.99 0 0 0-.82-4.54zm4.904 9.268c-3.052 5.457-19.193 15.81-20.907 16.808a20.25 20.25 0 0 0-.026-.231c-.965-8.887-1.26-16.294-.9-21.419.059.022.12.038.183.046l2.765.379a9.07 9.07 0 0 0 3.931 5.992 9.034 9.034 0 0 0 4.992 1.5h.002a9.082 9.082 0 0 0 7.6-4.08 9.03 9.03 0 0 0 1.315-6.829 9.022 9.022 0 0 0-3.894-5.761 9.037 9.037 0 0 0-4.997-1.504 9.133 9.133 0 0 0-3.34.634l-1.322-2.127a11.733 11.733 0 0 1 4.386-.856c1.989 0 3.961.515 5.704 1.49 5.641 3.156 7.663 10.315 4.508 15.958z" fill="#221F1F"/></g></svg>