<svg xmlns="http://www.w3.org/2000/svg" xmlns:xlink="http://www.w3.org/1999/xlink" viewBox="0 0 1150 1150" width="1150" height="1150" preserveAspectRatio="xMidYMid meet" style="width: 100%; height: 100%; transform: translate3d(0px, 0px, 0px); content-visibility: visible;"><defs><clipPath id="__lottie_element_2"><rect width="1150" height="1150" x="0" y="0"></rect></clipPath></defs><g clip-path="url(#__lottie_element_2)"><g transform="matrix(1,0,0,1,753,575)" opacity="1" style="display: block;"><g opacity="1" transform="matrix(1,0,0,1,0,0)"><path stroke-linecap="butt" stroke-linejoin="miter" fill-opacity="0" stroke-miterlimit="4" stroke="rgb(85,85,85)" stroke-opacity="1" stroke-width="1" d=" M-753,-570 C-753,-570 -752,570 -752,570"></path></g></g><g transform="matrix(1,0,0,1,1117,575)" opacity="1" style="display: block;"><g opacity="1" transform="matrix(-1,0,0,-1,-720,0)"><path stroke-linecap="butt" stroke-linejoin="miter" fill-opacity="0" stroke-miterlimit="4" stroke="rgb(85,85,85)" stroke-opacity="1" stroke-width="1" d=" M-753,-570 C-753,-570 -752,570 -752,570"></path></g></g><g transform="matrix(1,0,0,1,1327.5,575)" opacity="1" style="display: block;"><g opacity="1" transform="matrix(1,0,0,1,0,0)"><path stroke-linecap="butt" stroke-linejoin="miter" fill-opacity="0" stroke-miterlimit="4" stroke="rgb(85,85,85)" stroke-opacity="1" stroke-width="1" d=" M-753,-570 C-753,-570 -752,570 -752,570"></path></g></g><g transform="matrix(1,0,0,1,1625,1879.5)" opacity="1" style="display: block;"><g opacity="1" transform="matrix(0,1,-1.0049999952316284,0,-1050,-552)"><path stroke-linecap="butt" stroke-linejoin="miter" fill-opacity="0" stroke-miterlimit="4" stroke="rgb(85,85,85)" stroke-opacity="1" stroke-width="1" d=" M-753,-570 C-753,-570 -752,570 -752,570"></path></g></g><g transform="matrix(1,0,0,1,572.656005859375,572.656005859375)" opacity="1" style="display: block;"><g opacity="1" transform="matrix(1,0,0,1,2.3440001010894775,2.3440001010894775)"><path stroke-linecap="butt" stroke-linejoin="miter" fill-opacity="0" stroke-miterlimit="4" stroke="rgb(85,85,85)" stroke-opacity="1" stroke-width="1" d=" M0,-572.843505859375 C316.152587890625,-572.843505859375 572.843994140625,-316.15234375 572.843994140625,0 C572.843994140625,316.15234375 316.152587890625,572.843505859375 0,572.843505859375 C-316.152587890625,572.843505859375 -572.843994140625,316.15234375 -572.843994140625,0 C-572.843994140625,-316.15234375 -316.152587890625,-572.843505859375 0,-572.843505859375z"></path></g></g></g></svg>
